<?xml version="1.0" encoding="utf-8"?>
<!-- Generator: Adobe Illustrator 16.0.0, SVG Export Plug-In . SVG Version: 6.00 Build 0)  -->
<!DOCTYPE svg PUBLIC "-//W3C//DTD SVG 1.1//EN" "http://www.w3.org/Graphics/SVG/1.1/DTD/svg11.dtd">
<svg version="1.1" xmlns="http://www.w3.org/2000/svg" xmlns:xlink="http://www.w3.org/1999/xlink" x="0px" y="0px" width="2800px"
	 height="1960px" viewBox="0 0 2800 1960" enable-background="new 0 0 2800 1960" xml:space="preserve">
<g id="Guides_For_Artboard">
</g>
<g id="Layer_2">
	<g id="Airport">
	</g>
	<g>
		<g>
			<rect fill="#F7E2E2" width="2800" height="1960"/>
		</g>
		<g>
			<path fill="#FFC0C0" d="M1989.7,828c0,325.6-264,589.7-589.7,589.7c-325.7,0-589.7-264-589.7-589.7
				c0-325.7,264-589.7,589.7-589.7C1725.7,238.3,1989.7,502.3,1989.7,828z"/>
		</g>
		<g>
			<path fill="#F7E2E2" d="M1159.8,444.2c-14.5,0-27.6,6.1-36.9,15.8c-13-26.1-40-44.1-71.1-44.1c-29.4,0-55,15.9-68.7,39.6
				c-8.8-7.1-19.9-11.3-32.1-11.3c-28.2,0-51.1,22.9-51.1,51.1c0,28.2,22.9,51.1,51.1,51.1c12.1,0,23.3-4.2,32.1-11.3
				c13.7,23.7,39.4,39.6,68.7,39.6c31.2,0,58.1-17.9,71.1-44.1c9.3,9.7,22.4,15.8,36.9,15.8c28.2,0,51.1-22.9,51.1-51.1
				c0-12-4.1-23-11-31.7C1190.5,451.8,1176.1,444.2,1159.8,444.2z"/>
		</g>
		<g>
			<g>
				<polygon fill="#999999" points="2650,1656.8 150,1656.8 1400,499.9 				"/>
			</g>
			<g>
				<polygon fill="#BDBDBD" points="1400,499.9 2650,1656.8 1400,1656.8 				"/>
			</g>
			<g>
				<polygon fill="#CCCCCC" points="1755.7,829.1 1400,499.9 1044.3,829.1 1238.1,932.7 1341.7,884.9 1629.9,1048 				"/>
			</g>
		</g>
		<g>
			<path fill="#F7E2E2" d="M1003.4,874.3c-13,0-24.6,5.4-32.9,14.1c-11.6-23.3-35.7-39.3-63.4-39.3c-26.2,0-49.1,14.2-61.3,35.3
				c-7.8-6.3-17.8-10.1-28.6-10.1c-25.2,0-45.6,20.4-45.6,45.6c0,25.2,20.4,45.6,45.6,45.6c10.8,0,20.8-3.8,28.6-10.1
				c12.3,21.1,35.1,35.3,61.3,35.3c27.8,0,51.8-16,63.4-39.3c8.3,8.7,20,14.1,32.9,14.1c25.2,0,45.6-20.4,45.6-45.6
				C1049,894.7,1028.6,874.3,1003.4,874.3z"/>
		</g>
		<g>
			<g>
				<path fill="#E53333" d="M2198.2,735.4c0,0-34.9,30.7-63.4,33.8h342.7c0,0-56.8-16.9-66.3-33.8H2198.2z"/>
			</g>
			<g>
				<path fill="#E53333" d="M2181.6,738.1h249.1c0,0-124.6-61.4-124.6-163.3C2306.2,574.8,2305.6,677.8,2181.6,738.1z"/>
			</g>
			<g>
				<rect x="2207.5" y="769.2" fill="#570506" width="197.3" height="21.8"/>
			</g>
			<g>
				<polygon fill="#E53333" points="2480.3,829 2132.8,829 2090.8,791 2524.6,791 				"/>
			</g>
			<g>
				<rect x="2132.8" y="829" fill="#570506" width="345.1" height="133.1"/>
			</g>
			<g>
				<rect x="2162.7" y="845.2" fill="#FFC0C0" width="79.7" height="50.4"/>
			</g>
			<g>
				<rect x="2267.8" y="845.2" fill="#FFC0C0" width="79.7" height="50.4"/>
			</g>
			<g>
				<rect x="2371.7" y="845.2" fill="#FFC0C0" width="79.7" height="50.4"/>
			</g>
			<g>
				<path fill="#DD0000" d="M2112.6,906.9v58.7h385.4v-58.7H2112.6z M2199.9,914.9h27.2v43.8h-27.2V914.9z M2191.2,958.7H2160v-43.8
					h31.2V958.7z M2235.8,914.9h26.4v43.8h-26.4V914.9z M2270.9,914.9h29.8v43.8h-29.8V914.9z M2309.4,914.9h29.4v43.8h-29.4V914.9z
					 M2347.5,914.9h28.5v43.8h-28.5V914.9z M2384.7,914.9h29v43.8h-29V914.9z M2422.4,914.9h28.5v43.8h-28.5V914.9z M2121.8,914.9
					h29.6v43.8h-29.6V914.9z M2488.9,958.7h-29.3v-43.8h29.3V958.7z"/>
			</g>
			<g>
				<polygon fill="#E53333" points="2592.4,1051.2 2014.4,1051.2 2110.7,965.6 2496.2,965.6 				"/>
			</g>
			<g>
				<polygon fill="#DD0000" points="2303.4,965.6 2110.7,965.6 2014.4,1051.2 2303.4,1051.2 				"/>
			</g>
			<g>
				<rect x="2012.7" y="1081.6" fill="#570506" width="579.1" height="241.4"/>
			</g>
			<g>
				<polygon fill="#E53333" points="2592,1088.3 2012.6,1088.3 1970.6,1050.3 2636.3,1050.3 				"/>
			</g>
			<g>
				<polygon fill="#DD0000" points="2303.4,1049.4 1970.6,1049.4 2012.6,1087.4 2303.4,1087.4 				"/>
			</g>
			<g>
				<path fill="#DD0000" d="M1978.9,1229.4v102.8h646.8v-102.8H1978.9z M2125.4,1242.9h45.7v73.4h-45.7V1242.9z M2110.8,1316.3
					h-52.3v-73.4h52.3V1316.3z M2185.6,1242.9h44.2v73.4h-44.2V1242.9z M2244.4,1242.9h50.1v73.4h-50.1V1242.9z M2309.1,1242.9h49.4
					v73.4h-49.4V1242.9z M2373.1,1242.9h47.9v73.4h-47.9V1242.9z M2435.5,1242.9h48.6v73.4h-48.6V1242.9z M2498.7,1242.9h47.8v73.4
					h-47.8V1242.9z M1994.3,1242.9h49.6v73.4h-49.6V1242.9z M2610.3,1316.3h-49.2v-73.4h49.2V1316.3z"/>
			</g>
			<g>
				<rect x="2038" y="1109.6" fill="#FFC0C0" width="83.3" height="44.8"/>
			</g>
			<g>
				<rect x="2148" y="1109.6" fill="#FFC0C0" width="83.3" height="44.8"/>
			</g>
			<g>
				<rect x="2256.6" y="1109.6" fill="#FFC0C0" width="83.3" height="44.8"/>
			</g>
			<g>
				<rect x="2369.2" y="1109.6" fill="#FFC0C0" width="83.3" height="44.8"/>
			</g>
			<g>
				<rect x="2479.2" y="1109.6" fill="#FFC0C0" width="83.3" height="44.8"/>
			</g>
			<g>
				<rect x="2036" y="1169" fill="#FFC0C0" width="83.3" height="44.8"/>
			</g>
			<g>
				<rect x="2146" y="1169" fill="#FFC0C0" width="83.3" height="44.8"/>
			</g>
			<g>
				<rect x="2254.6" y="1169" fill="#FFC0C0" width="83.3" height="44.8"/>
			</g>
			<g>
				<rect x="2367.2" y="1169" fill="#FFC0C0" width="83.3" height="44.8"/>
			</g>
			<g>
				<rect x="2477.2" y="1169" fill="#FFC0C0" width="83.3" height="44.8"/>
			</g>
			<g>
				<polygon fill="#E53333" points="2722,1414.1 1882.9,1414.1 1979.1,1328.4 2625.7,1328.4 				"/>
			</g>
			<g>
				<polygon fill="#E53333" points="2721.6,1450.2 1881,1450.2 1839,1412.2 2765.8,1412.2 				"/>
			</g>
			<g>
				<rect x="1881.2" y="1450.2" fill="#570506" width="840.2" height="233.7"/>
			</g>
			<g>
				<rect x="1906.4" y="1472.5" fill="#FFC0C0" width="87.8" height="47.3"/>
			</g>
			<g>
				<rect x="2022.3" y="1472.5" fill="#FFC0C0" width="87.8" height="47.3"/>
			</g>
			<g>
				<rect x="2136.8" y="1472.5" fill="#FFC0C0" width="87.8" height="47.3"/>
			</g>
			<g>
				<rect x="2255.4" y="1472.5" fill="#FFC0C0" width="87.8" height="47.3"/>
			</g>
			<g>
				<rect x="2371.3" y="1472.5" fill="#FFC0C0" width="87.8" height="47.3"/>
			</g>
			<g>
				<rect x="2484.5" y="1472.5" fill="#FFC0C0" width="87.8" height="47.3"/>
			</g>
			<g>
				<rect x="2600.4" y="1472.5" fill="#FFC0C0" width="87.8" height="47.3"/>
			</g>
			<g>
				<rect x="1907.4" y="1538.9" fill="#FFC0C0" width="87.8" height="47.3"/>
			</g>
			<g>
				<rect x="2023.2" y="1538.9" fill="#FFC0C0" width="87.8" height="47.3"/>
			</g>
			<g>
				<rect x="2485.5" y="1538.9" fill="#FFC0C0" width="87.8" height="47.3"/>
			</g>
			<g>
				<rect x="2601.3" y="1538.9" fill="#FFC0C0" width="87.8" height="47.3"/>
			</g>
			<g>
				<rect x="2136.8" y="1538.9" fill="#FFC0C0" width="322.3" height="113.1"/>
			</g>
			<g>
				<rect x="1905" y="1604.7" fill="#FFC0C0" width="87.8" height="47.3"/>
			</g>
			<g>
				<rect x="2020.9" y="1604.7" fill="#FFC0C0" width="87.8" height="47.3"/>
			</g>
			<g>
				<rect x="2483.1" y="1604.7" fill="#FFC0C0" width="87.8" height="47.3"/>
			</g>
			<g>
				<rect x="2599" y="1604.7" fill="#FFC0C0" width="87.8" height="47.3"/>
			</g>
			<g>
				<path fill="#DD0000" d="M2306.2,574.8c0,0-0.6,103-124.5,163.3h124.5V574.8z"/>
			</g>
			<g>
				<polygon fill="#DD0000" points="2307.7,791 2090.8,791 2132.8,829 2307.7,829 				"/>
			</g>
			<g>
				<polygon fill="#DD0000" points="2302.4,1328.4 1979.1,1328.4 1882.9,1414.1 2302.4,1414.1 				"/>
			</g>
			<g>
				<polygon fill="#DD0000" points="2302.4,1412.2 1839,1412.2 1881,1450.2 2302.4,1450.2 				"/>
			</g>
		</g>
		<g>
			<g>
				<path fill="#E53333" d="M401.3,735.4c0,0-34.9,30.7-63.4,33.8h342.7c0,0-56.8-16.9-66.3-33.8H401.3z"/>
			</g>
			<g>
				<path fill="#E53333" d="M384.7,738.1h249.1c0,0-124.6-61.4-124.6-163.3C509.3,574.8,508.7,677.8,384.7,738.1z"/>
			</g>
			<g>
				<rect x="410.7" y="769.2" fill="#570506" width="197.3" height="21.8"/>
			</g>
			<g>
				<polygon fill="#E53333" points="683.5,829 335.9,829 293.9,791 727.7,791 				"/>
			</g>
			<g>
				<rect x="335.9" y="829" fill="#570506" width="345.1" height="133.1"/>
			</g>
			<g>
				<rect x="365.8" y="845.2" fill="#FFC0C0" width="79.7" height="50.4"/>
			</g>
			<g>
				<rect x="471" y="845.2" fill="#FFC0C0" width="79.7" height="50.4"/>
			</g>
			<g>
				<rect x="574.9" y="845.2" fill="#FFC0C0" width="79.7" height="50.4"/>
			</g>
			<g>
				<path fill="#DD0000" d="M315.8,906.9v58.7h385.4v-58.7H315.8z M403,914.9h27.2v43.8H403V914.9z M394.3,958.7h-31.2v-43.8h31.2
					V958.7z M438.9,914.9h26.4v43.8h-26.4V914.9z M474,914.9h29.8v43.8H474V914.9z M512.5,914.9H542v43.8h-29.4V914.9z M550.6,914.9
					h28.5v43.8h-28.5V914.9z M587.9,914.9h29v43.8h-29V914.9z M625.5,914.9H654v43.8h-28.5V914.9z M324.9,914.9h29.6v43.8h-29.6
					V914.9z M692.1,958.7h-29.3v-43.8h29.3V958.7z"/>
			</g>
			<g>
				<polygon fill="#E53333" points="795.6,1051.2 217.6,1051.2 313.8,965.6 699.3,965.6 				"/>
			</g>
			<g>
				<polygon fill="#DD0000" points="506.6,965.6 313.8,965.6 217.6,1051.2 506.6,1051.2 				"/>
			</g>
			<g>
				<rect x="215.9" y="1081.6" fill="#570506" width="579.1" height="241.4"/>
			</g>
			<g>
				<polygon fill="#E53333" points="795.2,1088.3 215.7,1088.3 173.7,1050.3 839.4,1050.3 				"/>
			</g>
			<g>
				<polygon fill="#DD0000" points="506.6,1049.4 173.7,1049.4 215.7,1087.4 506.6,1087.4 				"/>
			</g>
			<g>
				<path fill="#DD0000" d="M182.1,1229.4v102.8h646.8v-102.8H182.1z M328.5,1242.9h45.7v73.4h-45.7V1242.9z M313.9,1316.3h-52.3
					v-73.4h52.3V1316.3z M388.8,1242.9H433v73.4h-44.2V1242.9z M447.6,1242.9h50.1v73.4h-50.1V1242.9z M512.2,1242.9h49.4v73.4
					h-49.4V1242.9z M576.2,1242.9h47.9v73.4h-47.9V1242.9z M638.7,1242.9h48.6v73.4h-48.6V1242.9z M701.9,1242.9h47.8v73.4h-47.8
					V1242.9z M197.4,1242.9H247v73.4h-49.6V1242.9z M813.5,1316.3h-49.2v-73.4h49.2V1316.3z"/>
			</g>
			<g>
				<rect x="241.1" y="1109.6" fill="#FFC0C0" width="83.3" height="44.8"/>
			</g>
			<g>
				<rect x="351.1" y="1109.6" fill="#FFC0C0" width="83.3" height="44.8"/>
			</g>
			<g>
				<rect x="459.7" y="1109.6" fill="#FFC0C0" width="83.3" height="44.8"/>
			</g>
			<g>
				<rect x="572.3" y="1109.6" fill="#FFC0C0" width="83.3" height="44.8"/>
			</g>
			<g>
				<rect x="682.3" y="1109.6" fill="#FFC0C0" width="83.3" height="44.8"/>
			</g>
			<g>
				<rect x="239.1" y="1169" fill="#FFC0C0" width="83.3" height="44.8"/>
			</g>
			<g>
				<rect x="349.1" y="1169" fill="#FFC0C0" width="83.3" height="44.8"/>
			</g>
			<g>
				<rect x="457.7" y="1169" fill="#FFC0C0" width="83.3" height="44.8"/>
			</g>
			<g>
				<rect x="570.3" y="1169" fill="#FFC0C0" width="83.3" height="44.8"/>
			</g>
			<g>
				<rect x="680.3" y="1169" fill="#FFC0C0" width="83.3" height="44.8"/>
			</g>
			<g>
				<polygon fill="#E53333" points="925.1,1414.1 86,1414.1 182.3,1328.4 828.8,1328.4 				"/>
			</g>
			<g>
				<polygon fill="#E53333" points="924.7,1450.2 84.1,1450.2 42.2,1412.2 968.9,1412.2 				"/>
			</g>
			<g>
				<rect x="84.3" y="1450.2" fill="#570506" width="840.2" height="233.7"/>
			</g>
			<g>
				<rect x="109.6" y="1472.5" fill="#FFC0C0" width="87.8" height="47.3"/>
			</g>
			<g>
				<rect x="225.4" y="1472.5" fill="#FFC0C0" width="87.8" height="47.3"/>
			</g>
			<g>
				<rect x="339.9" y="1472.5" fill="#FFC0C0" width="87.8" height="47.3"/>
			</g>
			<g>
				<rect x="458.5" y="1472.5" fill="#FFC0C0" width="87.8" height="47.3"/>
			</g>
			<g>
				<rect x="574.4" y="1472.5" fill="#FFC0C0" width="87.8" height="47.3"/>
			</g>
			<g>
				<rect x="687.7" y="1472.5" fill="#FFC0C0" width="87.8" height="47.3"/>
			</g>
			<g>
				<rect x="803.5" y="1472.5" fill="#FFC0C0" width="87.8" height="47.3"/>
			</g>
			<g>
				<rect x="110.5" y="1538.9" fill="#FFC0C0" width="87.8" height="47.3"/>
			</g>
			<g>
				<rect x="226.4" y="1538.9" fill="#FFC0C0" width="87.8" height="47.3"/>
			</g>
			<g>
				<rect x="688.6" y="1538.9" fill="#FFC0C0" width="87.8" height="47.3"/>
			</g>
			<g>
				<rect x="804.5" y="1538.9" fill="#FFC0C0" width="87.8" height="47.3"/>
			</g>
			<g>
				<rect x="339.9" y="1538.9" fill="#FFC0C0" width="322.3" height="113.1"/>
			</g>
			<g>
				<rect x="108.2" y="1604.7" fill="#FFC0C0" width="87.8" height="47.3"/>
			</g>
			<g>
				<rect x="224" y="1604.7" fill="#FFC0C0" width="87.8" height="47.3"/>
			</g>
			<g>
				<rect x="686.3" y="1604.7" fill="#FFC0C0" width="87.8" height="47.3"/>
			</g>
			<g>
				<rect x="802.1" y="1604.7" fill="#FFC0C0" width="87.8" height="47.3"/>
			</g>
			<g>
				<path fill="#DD0000" d="M509.3,574.8c0,0-0.6,103-124.5,163.3h124.5V574.8z"/>
			</g>
			<g>
				<polygon fill="#DD0000" points="510.8,791 293.9,791 335.9,829 510.8,829 				"/>
			</g>
			<g>
				<polygon fill="#DD0000" points="505.5,1328.4 182.3,1328.4 86,1414.1 505.5,1414.1 				"/>
			</g>
			<g>
				<polygon fill="#DD0000" points="505.5,1412.2 42.2,1412.2 84.1,1450.2 505.5,1450.2 				"/>
			</g>
		</g>
		<g>
			<path fill="#570506" d="M2752.3,1617.2c-6.5,0-12.7,1.4-18.2,4c-10.6-33.2-41.7-57.2-78.4-57.2c-35.3,0-65.4,22.2-77.1,53.5
				c-1.7-0.2-3.4-0.3-5.2-0.3c-11.3,0-21.7,4.4-29.4,11.5c-3.9-19.2-20.9-33.6-41.2-33.6c-18.6,0-34.4,12.1-39.9,28.8
				c-6.7-4.2-14.6-6.7-23.2-6.7c-6.5,0-12.7,1.4-18.2,4c-10.6-33.2-41.7-57.2-78.4-57.2c-35.3,0-65.4,22.2-77.1,53.5
				c-1.7-0.2-3.4-0.3-5.2-0.3c-10.5,0-20.1,3.7-27.5,9.9c-4.5-18.3-21.1-32-40.8-32c-19.2,0-35.4,12.9-40.4,30.5
				c-7.2-5.3-16.1-8.4-25.7-8.4c-6.5,0-12.7,1.4-18.2,4c-10.6-33.2-41.7-57.2-78.4-57.2c-35.3,0-65.4,22.2-77.1,53.5
				c-1.7-0.2-3.4-0.3-5.2-0.3c-11.3,0-21.7,4.4-29.4,11.5c-3.9-19.2-20.9-33.6-41.2-33.6c-18.6,0-34.4,12.1-39.9,28.8
				c-6.7-4.2-14.6-6.7-23.2-6.7c-2.1,0-4.1,0.2-6.1,0.4c-2-0.3-4.1-0.4-6.1-0.4c-2.4,0-4.8,0.2-7.2,0.6
				c-11.6-31.4-41.8-53.8-77.2-53.8c-2.1,0-4.1,0.1-6.1,0.2c-2-0.1-4-0.2-6.1-0.2c-35.3,0-65.4,22.2-77.1,53.5
				c-1.7-0.2-3.4-0.3-5.2-0.3c-8.7,0-16.9,2.6-23.7,7c-5.5-16.9-21.3-29.1-40-29.1c-1.2,0-2.3,0.1-3.5,0.1c-1.1-0.1-2.3-0.1-3.4-0.1
				c-18.6,0-34.3,12-39.9,28.7c-6.3-3.9-13.6-6.3-21.5-6.5c-0.2,0-0.4,0-0.6,0c-0.3,0-0.5,0-0.8,0c0,0-0.1,0-0.1,0c0,0-0.1,0-0.1,0
				c-6.4,0-12.5,1.4-18,3.9c-10.6-33.1-41.7-57.1-78.3-57.1c0,0-0.1,0-0.1,0c0,0-0.1,0-0.1,0c-35.3,0-65.4,22.2-77.1,53.5
				c-1.6-0.2-3.3-0.3-5-0.3c0,0-0.1,0-0.1,0c0,0-0.1,0-0.1,0c-10.5,0-20,3.7-27.5,9.9c-4.5-18.3-21.1-32-40.8-32c-0.3,0-0.7,0-1,0
				c-0.3,0-0.6,0-1,0c-18.6,0-34.4,12.1-39.9,28.8c-6.7-4.2-14.6-6.7-23.1-6.7c-0.2,0-0.3,0-0.4,0c-0.2,0-0.4,0-0.6,0
				c-6.1,0-12,1.3-17.3,3.6c-10.7-33-41.7-56.8-78.2-56.8c-0.2,0-0.4,0-0.5,0c-0.2,0-0.3,0-0.5,0c-35.3,0-65.4,22.2-77,53.4
				c-1.4-0.1-2.8-0.2-4.2-0.2c-0.2,0-0.4,0-0.6,0c-0.2,0-0.3,0-0.5,0c-11.3,0-21.7,4.4-29.4,11.5c-3.9-19.2-20.9-33.6-41.2-33.6
				c-18.6,0-34.4,12.1-39.9,28.8c-6.7-4.2-14.6-6.7-23.2-6.7c-6.5,0-12.7,1.4-18.2,4c-10.6-33.2-41.7-57.2-78.4-57.2
				c-35.3,0-65.4,22.2-77.1,53.5c-1.7-0.2-3.4-0.3-5.2-0.3c-13.8,0-26.1,6.4-34,16.5c-1.8-21.6-19.9-38.6-41.9-38.6
				c-20.1,0-36.9,14.1-41.1,32.9c-7.6-6.7-17.7-10.8-28.7-10.8c-6.5,0-12.7,1.4-18.2,4c-10.6-33.2-41.7-57.2-78.4-57.2
				c-35.3,0-65.4,22.2-77.1,53.5c-1.7-0.2-3.4-0.3-5.2-0.3c-11.3,0-21.7,4.4-29.4,11.5c-3.9-19.2-20.9-33.6-41.2-33.6
				c-18.6,0-34.4,12.1-39.9,28.8c-6.7-4.2-14.6-6.7-23.1-6.7c-6.5,0-12.7,1.4-18.2,4c-10.6-33.2-41.7-57.2-78.4-57.2
				c-35.3,0-65.4,22.2-77.1,53.5c-1.7-0.2-3.4-0.3-5.2-0.3c-24,0-43.4,19.4-43.4,43.4v89.1h950.5h890.4h950.5v-89.1
				C2795.8,1636.6,2776.3,1617.2,2752.3,1617.2z"/>
		</g>
		<g>
			<g>
				<polygon fill="none" points="1605.6,1496.4 1607.8,1496.4 1607.8,1481.2 1191.4,1481.2 1191.4,1496.4 1194.4,1496.4 
					1194.4,1510.2 1191.4,1510.2 1191.4,1525.5 1607.8,1525.5 1607.8,1510.2 1605.6,1510.2 				"/>
			</g>
			<g>
				<polygon fill="#570506" points="1157.7,1537.8 1157.7,1525.5 1024.7,1525.5 1070.3,1566.8 1070.8,1566.8 1038.8,1537.8 				"/>
			</g>
			<g>
				<rect x="1191.4" y="1525.5" fill="#570506" width="416.3" height="12.3"/>
			</g>
			<g>
				<polygon fill="#570506" points="1641.5,1525.5 1641.5,1537.8 1761,1537.8 1775.3,1525.5 				"/>
			</g>
			<g>
				<path fill="#570506" d="M1726.1,1390l-1.1,1.1c-103.7,19.2-217.9,29.8-337.8,29.8c-110.6,0-216.2-9-313.3-25.5v49.6h652.2V1390z
					"/>
			</g>
			<g>
				<polygon fill="#DD0000" points="1191.4,1462 1191.4,1481.2 1607.8,1481.2 1607.8,1462 1641.5,1462 1641.5,1481.2 1713.1,1481.2 
					1761.2,1440 1726.1,1440 1073.9,1440 1038.8,1440 1084.4,1481.2 1157.7,1481.2 1157.7,1462 				"/>
			</g>
			<g>
				<polygon fill="#DD0000" points="1157.7,1537.8 1038.8,1537.8 1070.8,1566.8 1084.4,1579.1 1157.7,1579.1 				"/>
			</g>
			<g>
				<rect x="1191.4" y="1537.8" fill="#DD0000" width="416.3" height="41.2"/>
			</g>
			<g>
				<polygon fill="#DD0000" points="1641.5,1579.1 1713.1,1579.1 1761.2,1537.8 1761,1537.8 1641.5,1537.8 				"/>
			</g>
			<g>
				<polygon fill="#DD0000" points="1191.4,1481.2 1191.4,1462 1157.7,1462 1157.7,1481.2 1157.7,1496.4 1191.4,1496.4 				"/>
			</g>
			<g>
				<polygon fill="#DD0000" points="1191.4,1537.8 1191.4,1525.5 1191.4,1510.2 1157.7,1510.2 1157.7,1525.5 1157.7,1537.8 
					1157.7,1579.1 1157.7,1837.5 1191.4,1837.5 1191.4,1579.1 				"/>
			</g>
			<g>
				<polygon fill="#DD0000" points="1607.8,1462 1607.8,1481.2 1607.8,1496.4 1641.5,1496.4 1641.5,1481.2 1641.5,1462 				"/>
			</g>
			<g>
				<polygon fill="#DD0000" points="1641.5,1537.8 1641.5,1525.5 1641.5,1510.2 1607.8,1510.2 1607.8,1525.5 1607.8,1537.8 
					1607.8,1579.1 1607.8,1837.5 1641.5,1837.5 1641.5,1579.1 				"/>
			</g>
			<g>
				<path fill="#570506" d="M1725,1391.9l1.1-1.1l65.2-65.2c-116.8,32.1-255.4,50.7-404.1,50.7c-138,0-267.3-16-378.5-44l63.7,63.7
					c0.5,0.1,1,0.2,1.5,0.3c97.1,16.4,202.7,25.5,313.3,25.5C1507.1,1421.7,1621.3,1411.1,1725,1391.9z"/>
			</g>
			<g>
				<polygon fill="#570506" points="1605.2,1837.5 1605.2,1916.1 1644.1,1916.1 1644.1,1837.5 1641.5,1837.5 1607.8,1837.5 				"/>
			</g>
			<g>
				<polygon fill="#570506" points="1155.1,1837.5 1155.1,1916.1 1194,1916.1 1194,1837.5 1191.4,1837.5 1157.7,1837.5 				"/>
			</g>
			<g>
				<polygon fill="#570506" points="1605.6,1496.4 1605.6,1510.2 1607.8,1510.2 1641.5,1510.2 1644.5,1510.2 1644.5,1496.4 
					1641.5,1496.4 1607.8,1496.4 				"/>
			</g>
			<g>
				<polygon fill="#570506" points="1194.4,1510.2 1194.4,1496.4 1191.4,1496.4 1157.7,1496.4 1155.5,1496.4 1155.5,1510.2 
					1157.7,1510.2 1191.4,1510.2 				"/>
			</g>
		</g>
		<g>
			<path fill="#F7E2E2" d="M1995.4,754.1c-15.9,0-30.2,6.6-40.4,17.3c-14.2-28.6-43.7-48.2-77.8-48.2c-32.1,0-60.1,17.4-75.2,43.3
				c-9.6-7.7-21.8-12.4-35.1-12.4c-30.9,0-55.9,25-55.9,55.9c0,30.9,25,55.9,55.9,55.9c13.3,0,25.5-4.6,35.1-12.4
				c15,25.9,43.1,43.3,75.2,43.3c34.1,0,63.6-19.6,77.8-48.2c10.2,10.6,24.5,17.3,40.4,17.3c30.9,0,55.9-25,55.9-55.9
				C2051.3,779.1,2026.3,754.1,1995.4,754.1z"/>
		</g>
		<g>
			<line fill="#F7E2E2" x1="736.1" y1="1916.1" x2="2103.9" y2="1916.1"/>
			<path fill="#570506" d="M2103.9,1921.7H736.1c-3.1,0-5.7-2.5-5.7-5.7s2.5-5.7,5.7-5.7h1367.8c3.1,0,5.7,2.5,5.7,5.7
				S2107,1921.7,2103.9,1921.7z"/>
		</g>
	</g>
</g>
</svg>
